# xmcd
#
# Track frame offsets:
#	150
#	17162
#	30878
#	44541
#	50385
#	64413
#	79297
#	92826
#	108903
#	124166
#
# Disc length: 1911 seconds
#
# Revision: 1
# Processed by: cddbd v1.5.2PL0 Copyright (c) Steve Scherf et al.
# Submitted via: audiograbber 1.83.01
#
DISCID=7f07750a
DTITLE=John Coffey - Vanity
DYEAR=2009
DGENRE=rock
TTITLE0=Smashing 90s
TTITLE1=Dear Thomas Schell, It Was A Pleasure Meeting You
TTITLE2=VANITY (Got Shot In The Eye Tonight)
TTITLE3=A Final Leap Ahead
TTITLE4=Stephan's Children
TTITLE5=Fingers And Knives
TTITLE6=Vehicle
TTITLE7=Meanwhile At The Dog Track
TTITLE8=Wreckage And Scars
TTITLE9=Walls Of Infinity
EXTD=
EXTT0=
EXTT1=
EXTT2=
EXTT3=
EXTT4=
EXTT5=
EXTT6=
EXTT7=
EXTT8=
EXTT9=
PLAYORDER=
